<svg xmlns="http://www.w3.org/2000/svg" width="256.86" height="349.11" viewBox="0 0 256.86 349.11"><defs><style>.a{fill:#6b6b6b;}.b{fill:#e53f3f;}.c{fill:#c62828;}</style></defs><g transform="translate(0 349.11) rotate(-90)"><path class="a" d="M118.854,6.768V140.785a6.769,6.769,0,0,1-6.769,6.769H39.525A39.515,39.515,0,0,1,0,108.045V39.525A39.516,39.516,0,0,1,39.508,0a.082.082,0,0,1,.017,0h72.542a6.768,6.768,0,0,1,6.787,6.751Z" transform="translate(0 61.157)"/><path class="b" d="M173.073,24.858l4.787,4.786a6.771,6.771,0,0,1,4.45-2.019A55.118,55.118,0,0,1,220.932,44c17.354,17.354,60.619,121.245,0,181.863-60.129,60.13-183.718,17.287-201,0-24.332-24.332-28.715-143.576,0-172.291C48.1,25.4,132.173-25.613,173.073,15.287A6.767,6.767,0,0,1,173.073,24.858Z" transform="translate(96.951 0)"/><path class="c" d="M1.99,40.27A6.763,6.763,0,0,0,0,45.056,48.54,48.54,0,0,0,30.649,89.622,38.808,38.808,0,0,0,73.78,83.343C96.754,60.371,86.146,19.135,68.995,1.982a6.769,6.769,0,1,0-9.572,9.572C72.6,24.735,80.6,57.385,64.208,73.772a25.961,25.961,0,0,1-28.371,3.35A35.262,35.262,0,0,1,13.544,45.066,6.769,6.769,0,0,0,1.99,40.27Z" transform="translate(201.029 13.304)"/><path class="c" d="M13.514,1.982c-21.058,21.059-14.7,109.734,0,124.435A97.749,97.749,0,0,0,77.225,147.38a6.771,6.771,0,1,0-2.987-13.209,87.992,87.992,0,0,1-51.152-17.325c-8.452-8.452-16.521-88.771,0-105.291a6.769,6.769,0,0,0-9.572-9.573Z" transform="translate(189.506 70.735)"/><path class="c" d="M1.987,1.989A6.769,6.769,0,0,0,.111,8L2.744,22.253a6.768,6.768,0,0,0,13.3-2.451L13.416,5.55A6.769,6.769,0,0,0,1.977,1.978l.01.011Z" transform="translate(226.514 199.451)"/></g></svg>